<svg version="1.1" xmlns="http://www.w3.org/2000/svg" viewBox="-81.00000100000001 -88.37574171185808 162.00000200000002 179.4210434157185" fill="none" stroke="black" stroke-width="0.6%" vector-effect="non-scaling-stroke">
    <path d="M -80 45.84146 A 80 44.20384 180 0 0 80 45.84146" />
    <path d="M -56.56854 8.75025 A 80 44.20384 360 0 1 -50 5.50048" />
    <path d="M 50 5.50048 A 80 44.20384 360 0 1 80 40.00709 A 80 44.20384 360 0 1 -80 40.00709 A 80 44.20384 360 0 1 -56.56854 8.75025" />
    <path d="M 50 40.00709 A 50 27.6274 360 0 1 -50 40.00709" />
    <path d="M 45 -49.54915 A 50 27.6274 360 0 1 50 -37.50665 L 50 40.00709" />
    <path d="M 50 -37.50665 A 50 27.6274 360 0 1 -50 -37.50665 L -50 40.00709" />
    <path d="M -50 -37.50665 A 50 27.6274 360 0 1 -45 -49.54915" />
    <path d="M 45 -37.50665 A 45 24.86466 360 0 1 -45 -37.50665" />
    <path d="M -31.81981 -80.09305 A 45 24.86466 360 0 1 45 -62.51108 L 45 -37.50665" />
    <path d="M 45 -62.51108 A 45 24.86466 360 0 1 -45 -62.51108 L -45 -37.50665" />
    <path d="M -45 -62.51108 A 45 24.86466 360 0 1 -31.81981 -80.09305" />
    <path d="M -80 40.00709 L -80 45.84146" />
    <path d="M 80 40.00709 L 80 45.84146" />
</svg>