<svg version="1.1" xmlns="http://www.w3.org/2000/svg" viewBox="-81.00000100000001 -140.4669496894162 162.00000200000002 301.02342643395804" fill="none" stroke="black" stroke-width="0.6%" vector-effect="non-scaling-stroke">
    <path d="M -80 79.50234 A 80 70.53542 180 0 0 80 79.50234" />
    <path d="M -56.56854 26.3235 A 80 70.53542 360 0 1 -50 21.13788" />
    <path d="M 50 21.13788 A 80 70.53542 360 0 1 80 76.19957 A 80 70.53542 360 0 1 -80 76.19957 A 80 70.53542 360 0 1 -56.56854 26.3235" />
    <path d="M -21.82324 155.14801 A 5 4.40846 180 0 0 -11.82324 155.14801 L -11.82324 149.26319" />
    <path d="M 40.96194 140.31508 A 5 4.40846 180 0 0 50.96194 140.31508 L 50.96194 133.87413" />
    <path d="M -24.32324 131.55681 A 7.5 6.6127 180 0 0 -9.32324 131.55681" />
    <path d="M -70.28518 91.0325 A 7.5 6.6127 180 0 0 -55.28518 91.0325" />
    <path d="M 38.46194 116.72389 A 7.5 6.6127 180 0 0 53.46194 116.72389" />
    <path d="M 55.54074 63.07814 A 7.5 6.6127 180 0 0 70.28518 61.36665" />
    <path d="M 55.28518 61.36665 A 7.5 6.6127 180 0 0 55.54074 63.07814" />
    <path d="M 50 76.19957 A 50 44.08464 360 0 1 -50 76.19957" />
    <path d="M -53.46194 35.67526 A 7.5 6.6127 180 0 0 -50 41.24768" />
    <path d="M -14.8821 122.33849 A 7.5 6.6127 360 0 1 -9.32324 128.72587 A 7.5 6.6127 360 0 1 -24.32324 128.72587 L -24.32324 131.55681" />
    <path d="M -24.32324 128.72587 A 7.5 6.6127 360 0 1 -14.8821 122.33849" />
    <path d="M -55.54074 86.49007 A 7.5 6.6127 0 0 1 -55.28518 88.20156 L -55.28518 91.0325" />
    <path d="M -55.28518 88.20156 A 7.5 6.6127 0 0 1 -70.28518 88.20156 L -70.28518 91.0325" />
    <path d="M -70.28518 88.20156 A 7.5 6.6127 0 0 1 -55.54074 86.49007" />
    <path d="M 40.65864 109.21706 A 7.5 6.6127 360 0 1 53.46194 113.89294 L 53.46194 116.72389" />
    <path d="M 53.46194 113.89294 A 7.5 6.6127 360 0 1 38.46194 113.89294 L 38.46194 116.72389" />
    <path d="M 38.46194 113.89294 A 7.5 6.6127 360 0 1 40.65864 109.21706" />
    <path d="M 55.54074 60.2472 A 7.5 6.6127 360 0 1 55.28518 58.5357 L 55.28518 61.36665" />
    <path d="M 55.28518 58.5357 A 7.5 6.6127 360 1 1 70.28518 58.5357 L 70.28518 61.36665" />
    <path d="M 70.28518 58.5357 A 7.5 6.6127 360 0 1 55.54074 60.2472" />
    <path d="M 44.48832 -105.757 A 50 44.08464 360 0 1 50 -85.63605 L 50 76.19957" />
    <path d="M 50 -85.63605 A 50 44.08464 360 0 1 -50 -85.63605 L -50 76.19957" />
    <path d="M -50 -85.63605 A 50 44.08464 360 0 1 -44.48832 -105.757" />
    <path d="M -50 38.41674 A 7.5 6.6127 360 0 1 -53.46194 32.84432 L -53.46194 35.67526" />
    <path d="M -53.46194 32.84432 A 7.5 6.6127 360 0 1 -50 27.27191" />
    <path d="M 45 -85.63605 A 45 39.67617 360 0 1 -45 -85.63605" />
    <path d="M -31.81981 -127.84607 A 45 39.67617 360 0 1 45 -99.79077 L 45 -85.63605" />
    <path d="M 45 -99.79077 A 45 39.67617 360 0 1 -45 -99.79077 L -45 -85.63605" />
    <path d="M -45 -99.79077 A 45 39.67617 360 0 1 -31.81981 -127.84607" />
    <path d="M -80 76.19957 L -80 79.50234" />
    <path d="M 80 76.19957 L 80 79.50234" />
    <path d="M -21.82324 155.14801 L -21.82324 147.3626" />
    <path d="M 40.96194 140.31508 L 40.96194 140.09022" />
    <path d="M -9.32324 128.72587 L -9.32324 131.55681" />
</svg>