<svg version="1.1" xmlns="http://www.w3.org/2000/svg" viewBox="-81.000001 -112.00601423730978 162.000002 240.00431500507835" fill="none" stroke="black" stroke-width="0.6%" vector-effect="non-scaling-stroke">
    <path d="M -80 48.79274 A 80 56.14979 180 0 0 80 48.79274" />
    <path d="M -56.56854 4.10273 A 80 56.14979 360 0 1 -50 -0.02529" />
    <path d="M 50 -0.02529 A 80 56.14979 360 0 1 80 43.80662 A 80 56.14979 360 0 1 -80 43.80662 A 80 56.14979 360 0 1 -56.56854 4.10273" />
    <path d="M -21.82324 123.48894 A 5 3.50936 180 0 0 -11.82324 123.48894 L -11.82324 104.32593" />
    <path d="M 40.96194 111.68117 A 5 3.50936 180 0 0 50.96194 111.68117 L 50.96194 92.07545" />
    <path d="M -67.78518 91.22952 A 5 3.50936 180 0 0 -57.78518 91.22952 L -57.78518 87.62394" />
    <path d="M -24.32324 87.8738 A 7.5 5.26404 180 0 0 -9.32324 87.8738" />
    <path d="M -70.28518 55.61439 A 7.5 5.26404 180 0 0 -55.28518 55.61439" />
    <path d="M 38.46194 76.06603 A 7.5 5.26404 180 0 0 53.46194 76.06603" />
    <path d="M 55.54074 33.36129 A 7.5 5.26404 180 0 0 70.28518 31.99885" />
    <path d="M 55.28518 31.99885 A 7.5 5.26404 180 0 0 55.54074 33.36129" />
    <path d="M 50 43.80662 A 50 35.09362 360 0 1 -50 43.80662" />
    <path d="M -53.46194 11.54721 A 7.5 5.26404 180 0 0 -50 15.98313" />
    <path d="M -14.8821 78.51531 A 7.5 5.26404 360 0 1 -9.32324 83.59998 A 7.5 5.26404 360 0 1 -24.32324 83.59998 L -24.32324 87.8738" />
    <path d="M -24.32324 83.59998 A 7.5 5.26404 360 0 1 -14.8821 78.51531" />
    <path d="M -55.54074 49.97813 A 7.5 5.26404 0 0 1 -55.28518 51.34057 L -55.28518 55.61439" />
    <path d="M -55.28518 51.34057 A 7.5 5.26404 0 0 1 -70.28518 51.34057 L -70.28518 55.61439" />
    <path d="M -70.28518 51.34057 A 7.5 5.26404 0 0 1 -55.54074 49.97813" />
    <path d="M 40.65864 68.06998 A 7.5 5.26404 360 0 1 53.46194 71.79222 L 53.46194 76.06603" />
    <path d="M 53.46194 71.79222 A 7.5 5.26404 360 0 1 38.46194 71.79222 L 38.46194 76.06603" />
    <path d="M 38.46194 71.79222 A 7.5 5.26404 360 0 1 40.65864 68.06998" />
    <path d="M 55.54074 29.08747 A 7.5 5.26404 0 0 1 55.28518 27.72504 L 55.28518 31.99885" />
    <path d="M 55.28518 27.72504 A 7.5 5.26404 0 1 1 70.28518 27.72504 L 70.28518 31.99885" />
    <path d="M 70.28518 27.72504 A 7.5 5.26404 0 0 1 55.54074 29.08747" />
    <path d="M 45 -73.34963 A 50 35.09362 360 0 1 50 -58.05268 L 50 43.80662" />
    <path d="M 50 -58.05268 A 50 35.09362 360 0 1 -50 -58.05268 L -50 43.80662" />
    <path d="M -50 -58.05268 A 50 35.09362 360 0 1 -45 -73.34963" />
    <path d="M -50 11.70932 A 7.5 5.26404 360 0 1 -53.46194 7.27339 L -53.46194 11.54721" />
    <path d="M -53.46194 7.27339 A 7.5 5.26404 360 0 1 -50 2.83746" />
    <path d="M 45 -58.05268 A 45 31.58425 360 0 1 -45 -58.05268" />
    <path d="M -31.81981 -101.7552 A 45 31.58425 360 0 1 45 -79.42176 L 45 -58.05268" />
    <path d="M 45 -79.42176 A 45 31.58425 360 0 1 -45 -79.42176 L -45 -58.05268" />
    <path d="M -45 -79.42176 A 45 31.58425 360 0 1 -31.81981 -101.7552" />
    <path d="M -80 43.80662 L -80 48.79274" />
    <path d="M 80 43.80662 L 80 48.79274" />
    <path d="M -21.82324 123.48894 L -21.82324 102.81296" />
    <path d="M 40.96194 111.68117 L 40.96194 97.02378" />
    <path d="M -67.78518 91.22952 L -67.78518 78.61339" />
    <path d="M -9.32324 83.59998 L -9.32324 87.8738" />
</svg>